<mxfile host="app.diagrams.net" modified="2022-02-12T11:55:16.744Z" agent="5.0 (Windows NT 10.0; Win64; x64) AppleWebKit/537.36 (KHTML, like Gecko) Chrome/98.0.4758.96 Safari/537.36" etag="6VEnbbZfd6b1AB5fFpey" version="16.5.6" type="github">
  <diagram id="4oIV6yj0kOumqBlm-k7o" name="第 1 页">
    <mxGraphModel dx="1021" dy="618" grid="1" gridSize="10" guides="1" tooltips="1" connect="1" arrows="1" fold="1" page="1" pageScale="1" pageWidth="827" pageHeight="1169" math="0" shadow="0">
      <root>
        <mxCell id="0" />
        <mxCell id="1" parent="0" />
        <mxCell id="c90V17xBPOMmh_Vgb-so-16" style="edgeStyle=orthogonalEdgeStyle;rounded=0;orthogonalLoop=1;jettySize=auto;html=1;exitX=0.5;exitY=0;exitDx=0;exitDy=0;entryX=0;entryY=0.5;entryDx=0;entryDy=0;fillColor=#dae8fc;strokeColor=#6c8ebf;strokeWidth=3;" parent="1" source="c90V17xBPOMmh_Vgb-so-12" target="c90V17xBPOMmh_Vgb-so-15" edge="1">
          <mxGeometry relative="1" as="geometry" />
        </mxCell>
        <mxCell id="c90V17xBPOMmh_Vgb-so-17" value="弱电箱至小阳台&lt;br&gt;超六类网线" style="edgeLabel;html=1;align=center;verticalAlign=middle;resizable=0;points=[];" parent="c90V17xBPOMmh_Vgb-so-16" vertex="1" connectable="0">
          <mxGeometry x="-0.0456" relative="1" as="geometry">
            <mxPoint x="28" as="offset" />
          </mxGeometry>
        </mxCell>
        <mxCell id="c90V17xBPOMmh_Vgb-so-23" value="网络口" style="edgeLabel;html=1;align=center;verticalAlign=middle;resizable=0;points=[];" parent="c90V17xBPOMmh_Vgb-so-16" vertex="1" connectable="0">
          <mxGeometry x="-0.8523" y="-1" relative="1" as="geometry">
            <mxPoint as="offset" />
          </mxGeometry>
        </mxCell>
        <mxCell id="c90V17xBPOMmh_Vgb-so-20" style="edgeStyle=orthogonalEdgeStyle;rounded=0;orthogonalLoop=1;jettySize=auto;html=1;entryX=0;entryY=0.5;entryDx=0;entryDy=0;strokeWidth=3;fillColor=#dae8fc;strokeColor=#6c8ebf;" parent="1" source="c90V17xBPOMmh_Vgb-so-12" target="c90V17xBPOMmh_Vgb-so-18" edge="1">
          <mxGeometry relative="1" as="geometry" />
        </mxCell>
        <mxCell id="c90V17xBPOMmh_Vgb-so-24" value="IPTV口" style="edgeLabel;html=1;align=center;verticalAlign=middle;resizable=0;points=[];" parent="c90V17xBPOMmh_Vgb-so-20" vertex="1" connectable="0">
          <mxGeometry x="-0.8853" y="2" relative="1" as="geometry">
            <mxPoint x="2" y="2" as="offset" />
          </mxGeometry>
        </mxCell>
        <mxCell id="c90V17xBPOMmh_Vgb-so-25" value="超六类网线" style="edgeLabel;html=1;align=center;verticalAlign=middle;resizable=0;points=[];" parent="c90V17xBPOMmh_Vgb-so-20" vertex="1" connectable="0">
          <mxGeometry x="-0.1096" y="1" relative="1" as="geometry">
            <mxPoint x="13" as="offset" />
          </mxGeometry>
        </mxCell>
        <mxCell id="c90V17xBPOMmh_Vgb-so-12" value="光猫(弱电箱)&lt;br&gt;1G 光纤&lt;br&gt;1G LAN" style="rounded=0;whiteSpace=wrap;html=1;" parent="1" vertex="1">
          <mxGeometry x="100" y="180" width="120" height="60" as="geometry" />
        </mxCell>
        <mxCell id="c90V17xBPOMmh_Vgb-so-13" value="" style="endArrow=classic;html=1;rounded=0;entryX=0;entryY=0.5;entryDx=0;entryDy=0;fillColor=#f8cecc;strokeColor=#b85450;strokeWidth=3;" parent="1" target="c90V17xBPOMmh_Vgb-so-12" edge="1">
          <mxGeometry width="50" height="50" relative="1" as="geometry">
            <mxPoint x="10" y="210" as="sourcePoint" />
            <mxPoint x="60" y="190" as="targetPoint" />
          </mxGeometry>
        </mxCell>
        <mxCell id="c90V17xBPOMmh_Vgb-so-14" value="光纤入户" style="edgeLabel;html=1;align=center;verticalAlign=middle;resizable=0;points=[];" parent="c90V17xBPOMmh_Vgb-so-13" vertex="1" connectable="0">
          <mxGeometry x="0.384" y="-1" relative="1" as="geometry">
            <mxPoint x="-16" y="-1" as="offset" />
          </mxGeometry>
        </mxCell>
        <mxCell id="c90V17xBPOMmh_Vgb-so-19" style="edgeStyle=orthogonalEdgeStyle;rounded=0;orthogonalLoop=1;jettySize=auto;html=1;entryX=0.5;entryY=0;entryDx=0;entryDy=0;strokeWidth=3;fillColor=#dae8fc;strokeColor=#6c8ebf;" parent="1" source="c90V17xBPOMmh_Vgb-so-15" target="c90V17xBPOMmh_Vgb-so-18" edge="1">
          <mxGeometry relative="1" as="geometry" />
        </mxCell>
        <mxCell id="c90V17xBPOMmh_Vgb-so-26" value="小阳台至弱电箱&lt;br&gt;超六类网线" style="edgeLabel;html=1;align=center;verticalAlign=middle;resizable=0;points=[];" parent="c90V17xBPOMmh_Vgb-so-19" vertex="1" connectable="0">
          <mxGeometry x="-0.3886" y="2" relative="1" as="geometry">
            <mxPoint as="offset" />
          </mxGeometry>
        </mxCell>
        <mxCell id="c90V17xBPOMmh_Vgb-so-15" value="软路由(小阳台)&lt;br&gt;2.5G&amp;nbsp;电口 4口" style="rounded=0;whiteSpace=wrap;html=1;" parent="1" vertex="1">
          <mxGeometry x="324" y="100" width="120" height="60" as="geometry" />
        </mxCell>
        <mxCell id="c90V17xBPOMmh_Vgb-so-28" value="" style="edgeStyle=orthogonalEdgeStyle;rounded=0;orthogonalLoop=1;jettySize=auto;html=1;strokeWidth=3;fillColor=#d80073;strokeColor=#A50040;exitX=1;exitY=0.5;exitDx=0;exitDy=0;" parent="1" source="c90V17xBPOMmh_Vgb-so-18" target="c90V17xBPOMmh_Vgb-so-27" edge="1">
          <mxGeometry relative="1" as="geometry" />
        </mxCell>
        <mxCell id="c90V17xBPOMmh_Vgb-so-29" value="IPTV+网络&amp;nbsp;Trunk" style="edgeLabel;html=1;align=center;verticalAlign=middle;resizable=0;points=[];" parent="c90V17xBPOMmh_Vgb-so-28" vertex="1" connectable="0">
          <mxGeometry x="-0.7356" y="1" relative="1" as="geometry">
            <mxPoint x="16" y="1" as="offset" />
          </mxGeometry>
        </mxCell>
        <mxCell id="c90V17xBPOMmh_Vgb-so-31" value="" style="edgeStyle=orthogonalEdgeStyle;rounded=0;orthogonalLoop=1;jettySize=auto;html=1;strokeWidth=3;exitX=0.5;exitY=1;exitDx=0;exitDy=0;fillColor=#dae8fc;strokeColor=#6c8ebf;" parent="1" source="c90V17xBPOMmh_Vgb-so-18" target="c90V17xBPOMmh_Vgb-so-30" edge="1">
          <mxGeometry relative="1" as="geometry">
            <Array as="points">
              <mxPoint x="590" y="270" />
              <mxPoint x="150" y="270" />
            </Array>
          </mxGeometry>
        </mxCell>
        <mxCell id="c90V17xBPOMmh_Vgb-so-35" value="网络电口" style="edgeLabel;html=1;align=center;verticalAlign=middle;resizable=0;points=[];" parent="c90V17xBPOMmh_Vgb-so-31" vertex="1" connectable="0">
          <mxGeometry x="-0.9539" y="2" relative="1" as="geometry">
            <mxPoint x="-2" as="offset" />
          </mxGeometry>
        </mxCell>
        <mxCell id="c90V17xBPOMmh_Vgb-so-41" value="弱电箱至小阳台&lt;br&gt;超六类网线" style="edgeLabel;html=1;align=center;verticalAlign=middle;resizable=0;points=[];" parent="c90V17xBPOMmh_Vgb-so-31" vertex="1" connectable="0">
          <mxGeometry x="0.6056" relative="1" as="geometry">
            <mxPoint x="220" as="offset" />
          </mxGeometry>
        </mxCell>
        <mxCell id="c90V17xBPOMmh_Vgb-so-37" value="" style="edgeStyle=orthogonalEdgeStyle;rounded=0;orthogonalLoop=1;jettySize=auto;html=1;strokeWidth=3;exitX=0.5;exitY=1;exitDx=0;exitDy=0;fillColor=#dae8fc;strokeColor=#6c8ebf;" parent="1" source="c90V17xBPOMmh_Vgb-so-18" target="c90V17xBPOMmh_Vgb-so-36" edge="1">
          <mxGeometry relative="1" as="geometry" />
        </mxCell>
        <mxCell id="c90V17xBPOMmh_Vgb-so-45" value="弱电箱至次卧至工位&lt;br&gt;超六类网线" style="edgeLabel;html=1;align=center;verticalAlign=middle;resizable=0;points=[];" parent="c90V17xBPOMmh_Vgb-so-37" vertex="1" connectable="0">
          <mxGeometry x="0.6478" y="-1" relative="1" as="geometry">
            <mxPoint x="186" as="offset" />
          </mxGeometry>
        </mxCell>
        <mxCell id="c90V17xBPOMmh_Vgb-so-47" value="" style="edgeStyle=orthogonalEdgeStyle;rounded=0;orthogonalLoop=1;jettySize=auto;html=1;strokeWidth=3;exitX=0.5;exitY=1;exitDx=0;exitDy=0;fillColor=#dae8fc;strokeColor=#6c8ebf;" parent="1" source="c90V17xBPOMmh_Vgb-so-18" target="c90V17xBPOMmh_Vgb-so-46" edge="1">
          <mxGeometry relative="1" as="geometry">
            <Array as="points">
              <mxPoint x="590" y="320" />
              <mxPoint x="450" y="320" />
            </Array>
          </mxGeometry>
        </mxCell>
        <mxCell id="c90V17xBPOMmh_Vgb-so-18" value="主交换机(弱电箱)&lt;br&gt;万兆可网管&lt;br&gt;2.5G电口+10G光口" style="rounded=0;whiteSpace=wrap;html=1;" parent="1" vertex="1">
          <mxGeometry x="530" y="180" width="120" height="60" as="geometry" />
        </mxCell>
        <mxCell id="c90V17xBPOMmh_Vgb-so-39" value="" style="edgeStyle=orthogonalEdgeStyle;rounded=0;orthogonalLoop=1;jettySize=auto;html=1;strokeWidth=3;fillColor=#dae8fc;strokeColor=#6c8ebf;" parent="1" source="c90V17xBPOMmh_Vgb-so-27" target="c90V17xBPOMmh_Vgb-so-38" edge="1">
          <mxGeometry relative="1" as="geometry" />
        </mxCell>
        <mxCell id="c90V17xBPOMmh_Vgb-so-55" value="IPTV模式" style="edgeLabel;html=1;align=center;verticalAlign=middle;resizable=0;points=[];" parent="c90V17xBPOMmh_Vgb-so-39" vertex="1" connectable="0">
          <mxGeometry x="-0.762" relative="1" as="geometry">
            <mxPoint as="offset" />
          </mxGeometry>
        </mxCell>
        <mxCell id="c90V17xBPOMmh_Vgb-so-62" value="超六类网线&lt;br&gt;跳线" style="edgeLabel;html=1;align=center;verticalAlign=middle;resizable=0;points=[];" parent="c90V17xBPOMmh_Vgb-so-39" vertex="1" connectable="0">
          <mxGeometry x="0.2167" y="-2" relative="1" as="geometry">
            <mxPoint as="offset" />
          </mxGeometry>
        </mxCell>
        <mxCell id="c90V17xBPOMmh_Vgb-so-49" value="" style="edgeStyle=orthogonalEdgeStyle;rounded=0;orthogonalLoop=1;jettySize=auto;html=1;strokeWidth=3;fillColor=#ffe6cc;strokeColor=#d79b00;" parent="1" source="c90V17xBPOMmh_Vgb-so-27" target="c90V17xBPOMmh_Vgb-so-48" edge="1">
          <mxGeometry relative="1" as="geometry" />
        </mxCell>
        <mxCell id="c90V17xBPOMmh_Vgb-so-51" value="" style="edgeStyle=orthogonalEdgeStyle;rounded=0;orthogonalLoop=1;jettySize=auto;html=1;strokeWidth=3;" parent="1" source="c90V17xBPOMmh_Vgb-so-27" target="c90V17xBPOMmh_Vgb-so-50" edge="1">
          <mxGeometry relative="1" as="geometry">
            <Array as="points">
              <mxPoint x="860" y="390" />
              <mxPoint x="860" y="280" />
            </Array>
          </mxGeometry>
        </mxCell>
        <mxCell id="c90V17xBPOMmh_Vgb-so-54" value="" style="edgeStyle=orthogonalEdgeStyle;rounded=0;orthogonalLoop=1;jettySize=auto;html=1;strokeWidth=3;fillColor=#ffe6cc;strokeColor=#d79b00;" parent="1" source="c90V17xBPOMmh_Vgb-so-27" target="c90V17xBPOMmh_Vgb-so-53" edge="1">
          <mxGeometry relative="1" as="geometry">
            <Array as="points">
              <mxPoint x="860" y="390" />
              <mxPoint x="860" y="500" />
            </Array>
          </mxGeometry>
        </mxCell>
        <mxCell id="c90V17xBPOMmh_Vgb-so-57" value="" style="edgeStyle=orthogonalEdgeStyle;rounded=0;orthogonalLoop=1;jettySize=auto;html=1;strokeWidth=3;fillColor=#dae8fc;strokeColor=#6c8ebf;" parent="1" source="c90V17xBPOMmh_Vgb-so-27" target="c90V17xBPOMmh_Vgb-so-56" edge="1">
          <mxGeometry relative="1" as="geometry" />
        </mxCell>
        <mxCell id="c90V17xBPOMmh_Vgb-so-60" value="网络口" style="edgeLabel;html=1;align=center;verticalAlign=middle;resizable=0;points=[];" parent="c90V17xBPOMmh_Vgb-so-57" vertex="1" connectable="0">
          <mxGeometry x="-0.8173" relative="1" as="geometry">
            <mxPoint as="offset" />
          </mxGeometry>
        </mxCell>
        <mxCell id="c90V17xBPOMmh_Vgb-so-61" value="超六类网线&lt;br&gt;跳线" style="edgeLabel;html=1;align=center;verticalAlign=middle;resizable=0;points=[];" parent="c90V17xBPOMmh_Vgb-so-57" vertex="1" connectable="0">
          <mxGeometry x="0.1714" y="-3" relative="1" as="geometry">
            <mxPoint as="offset" />
          </mxGeometry>
        </mxCell>
        <mxCell id="c90V17xBPOMmh_Vgb-so-27" value="主路由器(电视柜)&lt;br&gt;2.5G WAN/LAN &lt;br&gt;1G LAN&amp;nbsp;&lt;br&gt;三频" style="whiteSpace=wrap;html=1;rounded=0;" parent="1" vertex="1">
          <mxGeometry x="707" y="360" width="120" height="60" as="geometry" />
        </mxCell>
        <mxCell id="c90V17xBPOMmh_Vgb-so-30" value="主NAS(小阳台)&lt;br&gt;2.5G电口" style="whiteSpace=wrap;html=1;rounded=0;" parent="1" vertex="1">
          <mxGeometry x="90" y="360" width="120" height="60" as="geometry" />
        </mxCell>
        <mxCell id="c90V17xBPOMmh_Vgb-so-36" value="电脑主机(工位)&lt;br&gt;2.5G电口" style="whiteSpace=wrap;html=1;rounded=0;" parent="1" vertex="1">
          <mxGeometry x="240" y="360" width="120" height="60" as="geometry" />
        </mxCell>
        <mxCell id="c90V17xBPOMmh_Vgb-so-38" value="IPTV盒子(电视柜)&lt;br&gt;1G电口" style="whiteSpace=wrap;html=1;rounded=0;" parent="1" vertex="1">
          <mxGeometry x="707" y="540" width="120" height="60" as="geometry" />
        </mxCell>
        <mxCell id="c90V17xBPOMmh_Vgb-so-46" value="主卧次卧预留" style="whiteSpace=wrap;html=1;rounded=0;" parent="1" vertex="1">
          <mxGeometry x="390" y="360" width="120" height="60" as="geometry" />
        </mxCell>
        <mxCell id="c90V17xBPOMmh_Vgb-so-48" value="访客网络&lt;br&gt;5G2" style="whiteSpace=wrap;html=1;rounded=0;" parent="1" vertex="1">
          <mxGeometry x="907" y="360" width="120" height="60" as="geometry" />
        </mxCell>
        <mxCell id="c90V17xBPOMmh_Vgb-so-50" value="主无线网络&lt;br&gt;5G1" style="whiteSpace=wrap;html=1;rounded=0;" parent="1" vertex="1">
          <mxGeometry x="907" y="250" width="120" height="60" as="geometry" />
        </mxCell>
        <mxCell id="c90V17xBPOMmh_Vgb-so-52" value="" style="edgeStyle=orthogonalEdgeStyle;rounded=0;orthogonalLoop=1;jettySize=auto;html=1;strokeWidth=3;fillColor=#ffe6cc;strokeColor=#d79b00;" parent="1" edge="1">
          <mxGeometry relative="1" as="geometry">
            <mxPoint x="827" y="390" as="sourcePoint" />
            <mxPoint x="907" y="280" as="targetPoint" />
            <Array as="points">
              <mxPoint x="860" y="390" />
              <mxPoint x="860" y="280" />
            </Array>
          </mxGeometry>
        </mxCell>
        <mxCell id="c90V17xBPOMmh_Vgb-so-59" value="" style="edgeStyle=orthogonalEdgeStyle;rounded=0;orthogonalLoop=1;jettySize=auto;html=1;strokeWidth=3;fillColor=#ffe6cc;strokeColor=#d79b00;" parent="1" source="c90V17xBPOMmh_Vgb-so-53" target="c90V17xBPOMmh_Vgb-so-58" edge="1">
          <mxGeometry relative="1" as="geometry" />
        </mxCell>
        <mxCell id="c90V17xBPOMmh_Vgb-so-53" value="IoT&lt;br&gt;智能家居&amp;nbsp;物联网&lt;br&gt;2.4G" style="whiteSpace=wrap;html=1;rounded=0;" parent="1" vertex="1">
          <mxGeometry x="907" y="470" width="120" height="60" as="geometry" />
        </mxCell>
        <mxCell id="c90V17xBPOMmh_Vgb-so-56" value="播放盒子(电视柜)&lt;br&gt;1G&amp;nbsp;电口" style="whiteSpace=wrap;html=1;rounded=0;" parent="1" vertex="1">
          <mxGeometry x="540" y="540" width="120" height="60" as="geometry" />
        </mxCell>
        <mxCell id="c90V17xBPOMmh_Vgb-so-58" value="客厅小爱音箱(电视柜)&lt;br&gt;无线" style="whiteSpace=wrap;html=1;rounded=0;" parent="1" vertex="1">
          <mxGeometry x="1107" y="470" width="120" height="60" as="geometry" />
        </mxCell>
      </root>
    </mxGraphModel>
  </diagram>
</mxfile>
